<?xml version="1.0" encoding="utf-8"?>
<!-- Generator: Adobe Illustrator 24.1.1, SVG Export Plug-In . SVG Version: 6.00 Build 0)  -->
<svg version="1.1" id="Capa_1" xmlns="http://www.w3.org/2000/svg" xmlns:xlink="http://www.w3.org/1999/xlink" x="0px" y="0px"
	 viewBox="0 0 30 30" style="enable-background:new 0 0 30 30;" xml:space="preserve">
<style type="text/css">
	.st0{fill:#063FF2;}
</style>
<g>
	<path d="M13.26,18.86h-1.3v-4.57h-1.61V13.4c0.47-0.01,0.87-0.14,1.19-0.37c0.32-0.24,0.51-0.53,0.58-0.89h1.14
		C13.26,12.14,13.26,18.86,13.26,18.86z"/>
	<path d="M14.04,15.5c0-1.01,0.2-1.81,0.59-2.4c0.49-0.74,1.21-1.11,2.16-1.11c0.96,0,1.68,0.37,2.17,1.11
		c0.4,0.61,0.6,1.41,0.6,2.4c0,0.98-0.2,1.77-0.6,2.39C18.47,18.63,17.75,19,16.79,19c-0.95,0-1.67-0.37-2.16-1.11
		C14.24,17.31,14.04,16.51,14.04,15.5z M15.35,15.5c0,0.83,0.14,1.43,0.42,1.82c0.25,0.35,0.59,0.52,1.02,0.52
		c0.44,0,0.78-0.17,1.03-0.52c0.28-0.39,0.43-1,0.43-1.82s-0.14-1.43-0.43-1.82c-0.25-0.35-0.6-0.52-1.03-0.52s-0.77,0.17-1.02,0.52
		C15.49,14.07,15.35,14.68,15.35,15.5z"/>
</g>
<g>
	<path class="st0" d="M15.35,7.89c4.2,0,7.61,3.41,7.61,7.61c0,0.46-0.05,0.92-0.13,1.36l4.9-4.9c-0.16-0.59-0.36-1.17-0.6-1.72
		l-6.56-6.56c-0.65-0.28-1.32-0.5-2.01-0.67l-5.13,5.13C14.04,7.98,14.68,7.89,15.35,7.89z"/>
	<path class="st0" d="M15.35,23.11c-4.2,0-7.61-3.41-7.61-7.61c0-0.67,0.09-1.31,0.25-1.92L3.17,18.4c0.18,0.71,0.41,1.39,0.7,2.05
		l6.48,6.48c0.57,0.25,1.16,0.46,1.78,0.63l4.58-4.58C16.27,23.06,15.81,23.11,15.35,23.11z"/>
</g>
<g>
	<g>
		<path d="M15.19,28.79c-7.59,0-13.76-6.17-13.76-13.76S7.6,1.27,15.19,1.27s13.76,6.17,13.76,13.76S22.78,28.79,15.19,28.79z
			 M15.19,3.39c-6.42,0-11.64,5.22-11.64,11.64s5.22,11.64,11.64,11.64s11.64-5.22,11.64-11.64S21.61,3.39,15.19,3.39z"/>
	</g>
</g>
</svg>
