<?xml version="1.0" encoding="utf-8"?>
<!-- Generator: Adobe Illustrator 24.1.1, SVG Export Plug-In . SVG Version: 6.00 Build 0)  -->
<svg version="1.1" id="Capa_1" xmlns="http://www.w3.org/2000/svg" xmlns:xlink="http://www.w3.org/1999/xlink" x="0px" y="0px"
	 viewBox="0 0 30 30" style="enable-background:new 0 0 30 30;" xml:space="preserve">
<path d="M15.34,1.1C7.75,1.1,1.58,7.27,1.58,14.86c0,7.59,6.17,13.76,13.76,13.76c7.59,0,13.76-6.17,13.76-13.76
	C29.1,7.27,22.93,1.1,15.34,1.1z M16.96,24.61c-4.2,0-7.61-3.41-7.61-7.61s3.41-7.61,7.61-7.61c4.2,0,7.61,3.41,7.61,7.61
	S21.16,24.61,16.96,24.61z"/>
<g>
	<path d="M16.95,21.29c-0.95,0-1.72-0.23-2.3-0.7c-0.58-0.46-0.87-1.05-0.87-1.76c0-0.47,0.14-0.9,0.43-1.27s0.65-0.64,1.1-0.8
		c-0.4-0.14-0.72-0.39-0.97-0.76c-0.24-0.37-0.37-0.76-0.37-1.16c0-0.7,0.28-1.28,0.84-1.73c0.56-0.45,1.27-0.68,2.14-0.68
		c0.86,0,1.58,0.23,2.14,0.68c0.56,0.45,0.85,1.03,0.85,1.73c0,0.4-0.12,0.78-0.37,1.15c-0.25,0.37-0.57,0.62-0.97,0.77
		c0.46,0.17,0.83,0.44,1.11,0.81c0.28,0.37,0.43,0.79,0.43,1.27c0,0.71-0.29,1.3-0.87,1.76C18.68,21.06,17.91,21.29,16.95,21.29z
		 M16.95,19.91c0.48,0,0.86-0.12,1.13-0.36c0.27-0.24,0.41-0.54,0.41-0.89c0-0.36-0.14-0.66-0.41-0.91
		c-0.27-0.24-0.65-0.37-1.13-0.37c-0.48,0-0.85,0.12-1.12,0.37c-0.27,0.24-0.4,0.55-0.4,0.91c0,0.34,0.14,0.64,0.41,0.88
		C16.11,19.79,16.48,19.91,16.95,19.91z M16.95,16.15c0.41-0.02,0.73-0.14,0.98-0.36c0.24-0.22,0.37-0.5,0.37-0.84
		c0-0.32-0.12-0.59-0.37-0.81c-0.25-0.22-0.57-0.33-0.97-0.33c-0.4,0-0.72,0.11-0.97,0.33c-0.24,0.22-0.37,0.49-0.37,0.81
		c0,0.34,0.12,0.62,0.36,0.84C16.22,16.01,16.55,16.13,16.95,16.15z"/>
</g>
</svg>
