<?xml version="1.0" encoding="utf-8"?>
<!-- Generator: Adobe Illustrator 24.1.1, SVG Export Plug-In . SVG Version: 6.00 Build 0)  -->
<svg version="1.1" id="Capa_1" xmlns="http://www.w3.org/2000/svg" xmlns:xlink="http://www.w3.org/1999/xlink" x="0px" y="0px"
	 viewBox="0 0 30 30" style="enable-background:new 0 0 30 30;" xml:space="preserve">
<style type="text/css">
	.st0{fill:#F3C604;}
</style>
<g>
	<path d="M12.68,18.89l0.43-1.34c0.43,0.24,0.94,0.36,1.52,0.36c0.84,0,1.5-0.22,1.98-0.67s0.74-1.07,0.78-1.87
		c-0.17,0.28-0.43,0.51-0.79,0.68c-0.36,0.18-0.77,0.26-1.23,0.26c-0.81,0-1.5-0.26-2.07-0.78s-0.86-1.21-0.86-2.08
		c0-0.86,0.31-1.57,0.92-2.13s1.38-0.83,2.3-0.83c0.96,0,1.76,0.34,2.41,1.03s0.97,1.67,0.97,2.95c0,1.55-0.37,2.75-1.12,3.61
		c-0.75,0.85-1.83,1.28-3.26,1.28c-0.36,0-0.73-0.04-1.1-0.13S12.88,19.03,12.68,18.89z M16.71,14.49c0.31-0.28,0.46-0.65,0.46-1.09
		s-0.15-0.8-0.46-1.08s-0.67-0.42-1.1-0.42s-0.8,0.14-1.1,0.42s-0.46,0.64-0.46,1.08c0,0.46,0.15,0.82,0.45,1.1
		c0.3,0.28,0.67,0.41,1.11,0.41C16.04,14.92,16.41,14.78,16.71,14.49z"/>
</g>
<g>
	<path class="st0" d="M15.35,7.89c4.2,0,7.61,3.41,7.61,7.61c0,0.46-0.05,0.92-0.13,1.36l4.9-4.9c-0.16-0.59-0.36-1.17-0.6-1.72
		l-6.56-6.56c-0.65-0.28-1.32-0.5-2.01-0.67l-5.13,5.13C14.04,7.98,14.68,7.89,15.35,7.89z"/>
	<path class="st0" d="M15.35,23.11c-4.2,0-7.61-3.41-7.61-7.61c0-0.67,0.09-1.31,0.25-1.92L3.17,18.4c0.18,0.71,0.41,1.39,0.7,2.05
		l6.48,6.48c0.57,0.25,1.16,0.46,1.78,0.63l4.58-4.58C16.27,23.06,15.81,23.11,15.35,23.11z"/>
</g>
<g>
	<g>
		<path d="M15.19,28.79c-7.59,0-13.76-6.17-13.76-13.76S7.6,1.27,15.19,1.27s13.76,6.17,13.76,13.76S22.78,28.79,15.19,28.79z
			 M15.19,3.39c-6.42,0-11.64,5.22-11.64,11.64s5.22,11.64,11.64,11.64s11.64-5.22,11.64-11.64S21.61,3.39,15.19,3.39z"/>
	</g>
</g>
</svg>
