<?xml version="1.0" encoding="utf-8"?>
<!-- Generator: Adobe Illustrator 24.1.1, SVG Export Plug-In . SVG Version: 6.00 Build 0)  -->
<svg version="1.1" id="Capa_1" xmlns="http://www.w3.org/2000/svg" xmlns:xlink="http://www.w3.org/1999/xlink" x="0px" y="0px"
	 viewBox="0 0 30 30" style="enable-background:new 0 0 30 30;" xml:space="preserve">
<g>
	<g>
		<g>
			<path d="M5.94,19.18c-2.81,0-5.09-2.28-5.09-5.09s2.28-5.09,5.09-5.09s5.09,2.28,5.09,5.09S8.75,19.18,5.94,19.18z M5.94,9.88
				c-2.33,0-4.22,1.89-4.22,4.22s1.89,4.22,4.22,4.22s4.22-1.89,4.22-4.22S8.27,9.88,5.94,9.88z"/>
		</g>
		<g>
			<path d="M6.51,15.4c-1.32,0-2.4-1.08-2.4-2.4s1.08-2.4,2.4-2.4s2.4,1.08,2.4,2.4S7.83,15.4,6.51,15.4z M6.51,11.47
				c-0.84,0-1.53,0.69-1.53,1.53s0.69,1.53,1.53,1.53S8.04,13.84,8.04,13C8.03,12.16,7.35,11.47,6.51,11.47z"/>
		</g>
		<g>
			<path d="M5.77,17.51c-0.02,0.26-0.27,0.45-0.53,0.39c-0.78-0.18-1.48-0.61-2-1.24c-0.52-0.63-0.8-1.4-0.83-2.2
				c-0.01-0.26,0.22-0.47,0.48-0.44l0,0c0.22,0.02,0.38,0.2,0.39,0.42c0.02,0.61,0.24,1.19,0.63,1.67c0.39,0.48,0.92,0.8,1.51,0.94
				C5.64,17.09,5.79,17.29,5.77,17.51L5.77,17.51z"/>
		</g>
	</g>
	<path d="M28.31,4.51c-0.4-0.44-1.09-0.47-1.53-0.07L1.4,27.37c-0.22,0.19-0.34,0.46-0.36,0.76s0.09,0.57,0.29,0.79l0.68,0.74
		c0.2,0.22,0.47,0.34,0.77,0.35c0.01,0,0.02,0,0.03,0c0.28,0,0.55-0.11,0.75-0.3l24.7-23.67C28.69,5.62,28.71,4.94,28.31,4.51z
		 M2.96,29.06c-0.06,0.06-0.12,0.06-0.16,0.06c-0.03,0-0.1-0.01-0.15-0.07l-0.68-0.74c-0.05-0.06-0.06-0.12-0.06-0.16
		c0-0.03,0.01-0.1,0.07-0.15L23.73,8.37l0.39,0.42L2.96,29.06z M27.66,5.4l-2.92,2.8l-0.37-0.4l3-2.71
		c0.04-0.04,0.09-0.06,0.15-0.06c0.06,0,0.12,0.02,0.16,0.07C27.75,5.19,27.75,5.32,27.66,5.4z"/>
	<g>
		<g>
			<path d="M5.94,19.18c-2.81,0-5.09-2.28-5.09-5.09s2.28-5.09,5.09-5.09s5.09,2.28,5.09,5.09S8.75,19.18,5.94,19.18z M5.94,9.88
				c-2.33,0-4.22,1.89-4.22,4.22s1.89,4.22,4.22,4.22s4.22-1.89,4.22-4.22S8.27,9.88,5.94,9.88z"/>
		</g>
		<g>
			<path d="M6.51,15.4c-1.32,0-2.4-1.08-2.4-2.4s1.08-2.4,2.4-2.4s2.4,1.08,2.4,2.4S7.83,15.4,6.51,15.4z M6.51,11.47
				c-0.84,0-1.53,0.69-1.53,1.53s0.69,1.53,1.53,1.53S8.04,13.84,8.04,13C8.03,12.16,7.35,11.47,6.51,11.47z"/>
		</g>
		<g>
			<path d="M5.77,17.51c-0.02,0.26-0.27,0.45-0.53,0.39c-0.78-0.18-1.48-0.61-2-1.24c-0.52-0.63-0.8-1.4-0.83-2.2
				c-0.01-0.26,0.22-0.47,0.48-0.44l0,0c0.22,0.02,0.38,0.2,0.39,0.42c0.02,0.61,0.24,1.19,0.63,1.67c0.39,0.48,0.92,0.8,1.51,0.94
				C5.64,17.09,5.79,17.29,5.77,17.51L5.77,17.51z"/>
		</g>
	</g>
	<g>
		<g>
			<path d="M15.34,11.17c-2.81,0-5.09-2.28-5.09-5.09S12.54,1,15.34,1s5.09,2.28,5.09,5.09S18.15,11.17,15.34,11.17z M15.34,1.87
				c-2.33,0-4.22,1.89-4.22,4.22s1.89,4.22,4.22,4.22s4.22-1.89,4.22-4.22S17.67,1.87,15.34,1.87z"/>
		</g>
		<g>
			<path d="M15.91,7.39c-1.32,0-2.4-1.08-2.4-2.4s1.08-2.4,2.4-2.4s2.4,1.08,2.4,2.4S17.23,7.39,15.91,7.39z M15.91,3.47
				c-0.84,0-1.53,0.69-1.53,1.53s0.69,1.53,1.53,1.53s1.53-0.69,1.53-1.53S16.75,3.47,15.91,3.47z"/>
		</g>
		<g>
			<path d="M15.17,9.5c-0.02,0.26-0.27,0.45-0.53,0.39c-0.78-0.18-1.48-0.61-2-1.24c-0.52-0.63-0.8-1.4-0.83-2.2
				C11.8,6.18,12.03,5.98,12.29,6l0,0c0.22,0.02,0.38,0.2,0.39,0.42c0.02,0.61,0.24,1.19,0.63,1.67c0.39,0.48,0.92,0.8,1.51,0.94
				C15.04,9.08,15.19,9.28,15.17,9.5L15.17,9.5z"/>
		</g>
	</g>
	<g>
		<g>
			<path d="M21.34,27.25c-2.81,0-5.09-2.28-5.09-5.09s2.28-5.09,5.09-5.09s5.09,2.28,5.09,5.09C26.43,24.97,24.15,27.25,21.34,27.25
				z M21.34,17.95c-2.33,0-4.22,1.89-4.22,4.22s1.89,4.22,4.22,4.22s4.22-1.89,4.22-4.22C25.56,19.84,23.67,17.95,21.34,17.95z"/>
		</g>
		<g>
			<path d="M21.9,23.47c-1.32,0-2.4-1.08-2.4-2.4c0-1.32,1.08-2.4,2.4-2.4s2.4,1.08,2.4,2.4C24.3,22.39,23.22,23.47,21.9,23.47z
				 M21.9,19.54c-0.84,0-1.53,0.69-1.53,1.53c0,0.84,0.69,1.53,1.53,1.53s1.53-0.69,1.53-1.53C23.43,20.23,22.75,19.54,21.9,19.54z"
				/>
		</g>
		<g>
			<path d="M21.16,25.57c-0.02,0.26-0.27,0.45-0.53,0.39c-0.78-0.18-1.48-0.61-2-1.24c-0.52-0.63-0.8-1.4-0.83-2.2
				c-0.01-0.26,0.22-0.47,0.48-0.44l0,0c0.22,0.02,0.38,0.2,0.39,0.42c0.02,0.61,0.24,1.19,0.63,1.67c0.39,0.48,0.92,0.8,1.51,0.94
				C21.04,25.16,21.18,25.36,21.16,25.57L21.16,25.57z"/>
		</g>
	</g>
</g>
</svg>
