<?xml version="1.0" encoding="utf-8"?>
<!-- Generator: Adobe Illustrator 24.1.1, SVG Export Plug-In . SVG Version: 6.00 Build 0)  -->
<svg version="1.1" id="Capa_1" xmlns="http://www.w3.org/2000/svg" xmlns:xlink="http://www.w3.org/1999/xlink" x="0px" y="0px"
	 viewBox="0 0 24 24" style="enable-background:new 0 0 24 24;" xml:space="preserve">
<path d="M22.62,4.6h-2.8V2.63c0-0.23-0.18-0.41-0.41-0.41H5.59c-0.22,0-0.41,0.18-0.41,0.41V4.6h-2.8c-0.23,0-0.41,0.18-0.41,0.41
	v4.84c0,0.71,0.13,1.4,0.38,2.04c0.85,2.17,2.48,3.61,4.25,3.75c1.22,2.04,2.91,3.38,4.77,3.77l0.01,0c0.1,0.02,0.21,0.04,0.32,0.06
	c-0.11,0.01-0.21,0.03-0.3,0.04c-2.11,0.34-3.6,1.61-3.61,3.1c0,0,0,0.01,0,0.01c0,0.17,0.1,0.31,0.25,0.38
	c0.05,0.02,0.1,0.03,0.16,0.03h8.62c0.06,0,0.11-0.01,0.16-0.03c0.15-0.07,0.25-0.21,0.25-0.38c0,0,0-0.01,0-0.01
	c-0.01-1.49-1.49-2.76-3.61-3.1c-0.09-0.02-0.19-0.03-0.3-0.04c0.11-0.02,0.21-0.03,0.32-0.06l0.01,0l0,0
	c1.85-0.38,3.54-1.72,4.76-3.77c1.77-0.14,3.4-1.58,4.25-3.75c0.25-0.64,0.38-1.33,0.38-2.04V5.01C23.02,4.78,22.84,4.6,22.62,4.6z
	 M5.75,13.9c0.1,0.26,0.22,0.53,0.36,0.82c-1.26-0.35-2.35-1.49-3-3.14c-0.21-0.54-0.32-1.13-0.32-1.74V5.41h2.39v5.45
	C5.18,11.93,5.37,12.95,5.75,13.9z M22.21,9.87c0,0.6-0.11,1.18-0.32,1.72c-0.65,1.65-1.74,2.79-3,3.14
	c0.14-0.29,0.26-0.57,0.36-0.83c0.37-0.95,0.56-1.97,0.56-3.03V5.41h2.39L22.21,9.87L22.21,9.87z M13.47,18.61L13.47,18.61
	c-0.63,0.13-1.3,0.13-1.93,0c-2.09-0.43-3.97-2.3-5.03-5C6.17,12.74,6,11.82,6,10.87V3.04h13v7.83c0,0.96-0.17,1.88-0.51,2.74
	C17.43,16.3,15.56,18.17,13.47,18.61z M13.48,20.31c1.45,0.23,2.59,1,2.86,1.9H8.66c0.27-0.91,1.41-1.67,2.86-1.9
	C12.14,20.2,12.86,20.2,13.48,20.31z"/>
</svg>
