<?xml version="1.0" encoding="utf-8"?>
<!-- Generator: Adobe Illustrator 22.1.0, SVG Export Plug-In . SVG Version: 6.00 Build 0)  -->
<svg version="1.1" id="Capa_1" xmlns="http://www.w3.org/2000/svg" xmlns:xlink="http://www.w3.org/1999/xlink" x="0px" y="0px"
	 width="217.3px" height="43.1px" viewBox="0 0 217.3 43.1" style="enable-background:new 0 0 217.3 43.1;" xml:space="preserve">
<style type="text/css">
	.st0{fill:#FFFFFF;}
</style>
<g>
	<polygon class="st0" points="98.7,13.8 95,33.7 100.6,33.7 104.4,13.8 	"/>
	<g>
		<polygon class="st0" points="186.7,28.6 181,28.6 180,33.7 204,33.7 205,28.6 186.7,28.6 		"/>
		<polygon class="st0" points="181.4,26.5 186.7,28.6 188.5,18.7 201.2,18.7 199.7,26.6 205,28.6 207.8,13.8 183.8,13.8 		"/>
		<polygon class="st0" points="100.6,33.7 118.5,33.7 119.4,28.6 104.1,28.6 		"/>
		<polygon class="st0" points="103.4,18.7 121.3,18.7 122.3,13.8 106.6,13.8 		"/>
		<polygon class="st0" points="128.9,33.7 146.8,33.7 147.9,28.6 132.3,28.6 		"/>
		<polygon class="st0" points="142.3,20.9 133.6,20.9 130.4,25.5 141.5,25.5 		"/>
		<polygon class="st0" points="131.7,18.7 149.7,18.7 150.7,13.8 134.9,13.8 		"/>
		<polygon class="st0" points="131.7,18.7 132.7,13.8 126.9,13.8 123.1,33.7 128.9,33.7 		"/>
		<polygon class="st0" points="157.4,33.7 175.2,33.7 176.1,28.6 160.4,28.6 		"/>
		<polygon class="st0" points="155.4,13.8 151.7,33.7 157.3,33.7 161.1,13.8 		"/>
		<path class="st0" d="M208,9.9c-0.5,0.2-5.3,2.3-5.6,2.4l-1.2,0.6l6.7,0l0.6-3.3L208,9.9z"/>
	</g>
	<polygon class="st0" points="37.4,33.7 43,33.7 44.3,26.4 55,26.4 58.2,21.9 45.2,21.9 45.8,18.7 58.7,18.7 55.9,33.7 61.5,33.7 
		65.3,13.8 41.1,13.8 	"/>
	<polygon class="st0" points="69.9,13.8 66.1,33.7 71.8,33.7 74.6,18.7 87.6,18.7 87,21.9 93,19.8 94.2,13.8 	"/>
	<polygon class="st0" points="11.2,19.5 16.5,21.5 17,18.7 29.8,18.7 29.4,21.5 10.9,21.5 10,26.4 15.1,28.6 15.6,25.8 28.5,25.8 
		28,28.6 9.5,28.6 8.5,33.7 32.6,33.7 36.4,13.8 12.3,13.8 	"/>
	<polygon class="st0" points="84.8,33.7 90.4,33.7 92.5,21.9 76.3,21.9 73.2,26.4 86.1,26.4 	"/>
</g>
</svg>
