<?xml version="1.0" encoding="utf-8"?>
<!-- Generator: Adobe Illustrator 24.1.1, SVG Export Plug-In . SVG Version: 6.00 Build 0)  -->
<svg version="1.1" id="Capa_1" xmlns="http://www.w3.org/2000/svg" xmlns:xlink="http://www.w3.org/1999/xlink" x="0px" y="0px"
	 viewBox="0 0 24 24" style="enable-background:new 0 0 24 24;" xml:space="preserve">
<g>
	<path d="M12,22.42C6.25,22.42,1.58,17.75,1.58,12C1.58,6.25,6.25,1.58,12,1.58c5.75,0,10.42,4.68,10.42,10.42
		C22.42,17.75,17.75,22.42,12,22.42z M12,2.42c-5.28,0-9.58,4.3-9.58,9.58c0,5.28,4.3,9.58,9.58,9.58c5.28,0,9.58-4.3,9.58-9.58
		C21.58,6.72,17.28,2.42,12,2.42z"/>
</g>
<g>
	<path d="M14.5,12.92c-2.44,0-4.42-1.98-4.42-4.42s1.98-4.42,4.42-4.42c2.44,0,4.42,1.98,4.42,4.42S16.94,12.92,14.5,12.92z
		 M14.5,4.92c-1.97,0-3.58,1.6-3.58,3.58s1.6,3.58,3.58,3.58c1.97,0,3.58-1.6,3.58-3.58S16.47,4.92,14.5,4.92z"/>
</g>
</svg>
