<?xml version="1.0" encoding="utf-8"?>
<!-- Generator: Adobe Illustrator 24.1.1, SVG Export Plug-In . SVG Version: 6.00 Build 0)  -->
<svg version="1.1" id="Capa_1" xmlns="http://www.w3.org/2000/svg" xmlns:xlink="http://www.w3.org/1999/xlink" x="0px" y="0px"
	 viewBox="0 0 24 24" style="enable-background:new 0 0 24 24;" xml:space="preserve">
<g>
	<path d="M7.22,13.73c-1.21,0-2.2,0.99-2.2,2.2c0,1.21,0.98,2.2,2.2,2.2c1.21,0,2.2-0.98,2.2-2.2c0-0.67-0.3-1.3-0.83-1.72
		l-0.08-0.07l2.06-3.75l0.09,0.02c0.37,0.06,0.71,0.03,1.04-0.08l0.09-0.03l2.42,4.01l-0.07,0.07c-0.42,0.42-0.64,0.97-0.64,1.55
		c0,1.21,0.98,2.2,2.19,2.2c1.21,0,2.2-0.98,2.2-2.2c0-0.67-0.3-1.3-0.83-1.72l-0.08-0.07l2.08-3.79l0.09,0.02
		c0.17,0.04,0.35,0.06,0.52,0.06c1.21,0,2.2-0.98,2.2-2.2c0-1.21-0.99-2.2-2.2-2.2s-2.2,0.99-2.2,2.2c0,0.63,0.28,1.24,0.76,1.66
		l0.08,0.07l-2.1,3.83l-0.09-0.02c-0.35-0.07-0.75-0.05-1.1,0.07l-0.09,0.03l-2.42-4.01l0.07-0.07c0.42-0.42,0.65-0.97,0.65-1.55
		c0-1.21-0.98-2.2-2.2-2.2h0c-1.21,0-2.2,0.99-2.2,2.2c0,0.68,0.33,1.34,0.88,1.76l0.09,0.07l-2.05,3.73l-0.09-0.02
		C7.51,13.75,7.36,13.73,7.22,13.73z M18.29,8.24c0-0.76,0.6-1.36,1.36-1.36s1.36,0.6,1.36,1.36c0,0.76-0.6,1.36-1.36,1.36
		S18.29,9.01,18.29,8.24z M15.67,14.57c0.76,0,1.36,0.6,1.36,1.36c0,0.76-0.6,1.36-1.36,1.36c-0.76,0-1.36-0.6-1.36-1.36
		C14.31,15.17,14.91,14.57,15.67,14.57z M9.65,8.24c0-0.76,0.6-1.36,1.36-1.36c0.76,0,1.36,0.6,1.36,1.36c0,0.76-0.6,1.36-1.36,1.36
		C10.24,9.6,9.65,9.01,9.65,8.24z M8.58,15.93c0,0.76-0.6,1.36-1.36,1.36c-0.76,0-1.36-0.6-1.36-1.36c0-0.76,0.6-1.36,1.36-1.36
		C7.98,14.57,8.58,15.17,8.58,15.93z"/>
	<path d="M2.44,3.13c-0.23,0-0.42,0.19-0.42,0.42v16.82c0,0.52,0.44,0.96,0.96,0.96h18.44c0.11,0,0.22-0.04,0.29-0.12
		c0.08-0.08,0.12-0.18,0.12-0.29c0-0.11-0.04-0.22-0.12-0.29c-0.08-0.08-0.18-0.12-0.29-0.12H2.86V3.54
		C2.86,3.31,2.67,3.13,2.44,3.13z"/>
</g>
</svg>
