<?xml version="1.0" encoding="utf-8"?>
<!-- Generator: Adobe Illustrator 24.1.1, SVG Export Plug-In . SVG Version: 6.00 Build 0)  -->
<svg version="1.1" id="Capa_1" xmlns="http://www.w3.org/2000/svg" xmlns:xlink="http://www.w3.org/1999/xlink" x="0px" y="0px"
	 viewBox="0 0 24 24" style="enable-background:new 0 0 24 24;" xml:space="preserve">
<path d="M20.96,20.83H2.4c-0.25,0-0.46,0.2-0.46,0.46s0.2,0.46,0.46,0.46h18.56c0.25,0,0.46-0.2,0.46-0.46S21.21,20.83,20.96,20.83z
	"/>
<path d="M7.25,16.4v-3.02c0-1.45-1.18-2.64-2.64-2.64s-2.64,1.18-2.64,2.64v3.02c0,0.69,0.28,1.37,0.78,1.86
	c0.49,0.49,1.17,0.77,1.86,0.77C6.07,19.03,7.25,17.85,7.25,16.4z M6.35,16.4c0,0.95-0.77,1.72-1.72,1.72
	c-0.95,0-1.72-0.77-1.72-1.72L2.9,13.38c0-0.95,0.77-1.72,1.72-1.72s1.72,0.77,1.72,1.72V16.4z"/>
<path d="M14.31,16.4V4.89c0-1.45-1.18-2.64-2.64-2.64S9.04,3.43,9.04,4.89V16.4c0,0.69,0.28,1.37,0.78,1.86
	c0.49,0.49,1.17,0.77,1.86,0.77C13.13,19.03,14.31,17.85,14.31,16.4z M13.4,16.4c0,0.95-0.77,1.72-1.72,1.72
	c-0.46,0-0.89-0.18-1.22-0.5c-0.26-0.26-0.43-0.6-0.49-0.97H9.97l-0.02-0.25V4.89c0-0.95,0.77-1.72,1.72-1.72s1.73,0.77,1.73,1.72
	V16.4z"/>
<path d="M16.1,16.4c0,0.69,0.28,1.37,0.77,1.86c0.49,0.49,1.17,0.77,1.86,0.77c1.46,0,2.64-1.18,2.64-2.63V9.08
	c0-1.46-1.18-2.64-2.64-2.64S16.1,7.62,16.1,9.08V16.4z M17.02,9.08c0-0.95,0.77-1.73,1.72-1.73s1.72,0.77,1.72,1.73v7.32
	c0,0.95-0.77,1.72-1.72,1.72c-0.46,0-0.89-0.18-1.22-0.5c-0.26-0.26-0.43-0.6-0.49-0.97h-0.01l-0.01-0.25V9.08z"/>
</svg>
